<svg width="560" height="146" viewBox="0 0 560 146" fill="none" xmlns="http://www.w3.org/2000/svg">
<path d="M22 40.1085C62.6637 40.5693 448.039 18.4044 500.538 22.8442C527.704 25.1416 522.648 26.1986 508.65 32.3754C489.094 41.005 468.589 47.4782 447.934 52.8978C340.238 73.3404 324.066 77.3582 246.175 90.238C223.131 94.0484 168.244 100.973 145.532 106.435C140.099 107.741 133.419 109.424 128.011 111.139C126.411 111.647 118.65 113.506 117.547 115.804C116.692 117.585 121.147 117.591 123.104 117.872C152.116 122.035 182.8 121.546 211.886 122.009C320.559 123.74 429.289 122.82 537.974 122.82" stroke="#D7F0F2" stroke-width="43.9337" stroke-linecap="round"/>
</svg>
