<svg width="38" height="55" viewBox="0 0 38 55" fill="none" xmlns="http://www.w3.org/2000/svg">
<path d="M36.7912 23.5807C36.4562 22.9327 28.5232 7.71717 12.6685 0.746157C8.37547 -1.13624 3.33854 0.746157 1.41917 4.97457C-0.5002 9.19739 1.41917 14.1519 5.71788 16.0399C12.0098 18.8105 16.5527 23.86 19.1251 27.3511C16.5583 30.8366 12.0155 35.8805 5.71788 38.651C1.42485 40.539 -0.5002 45.4992 1.41917 49.7164C2.83315 52.8332 5.93935 54.6765 9.19887 54.6765C10.3573 54.6765 11.5441 54.4419 12.6685 53.9448C28.5232 46.9682 36.4562 31.7582 36.7912 31.1159C38.0065 28.7419 38.0065 25.9435 36.7912 23.5751V23.5807Z" fill="#D7F0F2"/>
</svg>
