<svg width="64" height="76" viewBox="0 0 64 76" fill="none" xmlns="http://www.w3.org/2000/svg">
<path d="M2.62089 31.2282C6.88424 26.2683 14.4481 18.7959 26.2823 11.3921C36.0143 5.30292 44.6761 2.06955 50.2312 0.428843C53.3482 -0.491053 56.6522 0.0821658 59.2774 2.0215C61.9026 3.96426 63.4092 6.93676 63.4092 10.1804V65.3399C63.4092 68.5835 61.8992 71.556 59.2774 73.4988C57.473 74.8306 55.3466 75.5205 53.1785 75.5205C52.1949 75.5205 51.2044 75.3763 50.2278 75.0915C44.6726 73.4507 36.0108 70.2174 26.2789 64.1282C14.4447 56.721 6.88078 49.252 2.61743 44.2887C-0.631172 40.5061 -0.627708 35.0108 2.62089 31.2282Z" fill="#0618C4"/>
</svg>
