<svg width="174" height="123" viewBox="0 0 174 123" fill="none" xmlns="http://www.w3.org/2000/svg">
<path d="M130.323 82.4191L130.507 79.631C129.027 79.8946 116.355 81.7832 112.998 77.7573C107.781 71.5025 112.22 63.2785 116.623 58.4879C122.421 52.1807 131.95 51.0857 137.255 58.72C138.685 60.7767 139.365 63.1835 140.214 65.5028C157.505 64.0046 162.863 54.835 162.863 54.8317L161.905 53.7882C161.905 53.7882 160.773 55.0502 159.023 56.1092C154.262 58.9901 141.89 60.9055 138.64 52.4307C133.665 39.4466 151.597 22.894 164.16 31.4895C174.255 38.3943 174.001 74.3626 136.633 81.016C134.943 82.8234 113.138 106.108 113.138 106.108L97.8778 86.8699L97.9332 85.0036L130.316 82.4215L130.323 82.4191Z" fill="#94D1FF"/>
<path d="M74.3725 73.0586L2.93274 78.9284L11.8983 60.1418C11.8983 60.1418 58.595 57.1863 74.0728 54.5672C75.2714 54.3645 77.1026 54.1012 77.1026 54.1012L80.3749 51.585C80.3749 51.585 80.0266 51.1012 79.6988 50.3852L77.2298 52.2795C76.881 52.6135 76.3101 52.5094 76.1052 52.0704C75.9348 51.6978 75.7493 51.3128 75.6407 51.1469C70.1044 42.7393 58.8325 51.8671 53.046 44.2134C46.8418 36.0146 58.4418 22.2284 65.0929 18.074C78.2365 9.87133 87.5738 14.6203 87.5738 14.6203L79.4364 28.406L79.185 28.4237C70.708 20.3622 59.7683 29.433 59.1105 29.8751L59.4306 30.6445L61.4614 29.3914C61.5411 30.6845 62.6347 31.966 63.5842 32.6266C67.6108 35.4522 71.8349 33.6038 76.2017 34.5265C80.9292 35.5226 85.3407 40.0234 86.1366 44.8022C87.4983 52.9526 81.6514 65.0156 74.3725 73.0586Z" fill="#94D1FF"/>
<path d="M104.003 58.6936L98.0795 81.0477L74.7332 102.641L57.0861 83.1077L57.1705 81.6478L92.6357 78.9857C92.6357 78.9857 92.4954 65.3842 92.7136 61.313L104.004 58.6902L104.003 58.6936Z" fill="#94D1FF"/>
<path d="M21.9341 84.5623L51.9883 82.1263L46.1215 99.1859L18.0521 101.589L16.9632 100.322L21.9341 84.5623Z" fill="#94D1FF"/>
<path d="M103.47 30.7151L112.127 40.2479L101.316 49.3035L92.5528 40.1231L103.47 30.7151Z" fill="#94D1FF"/>
<path d="M127.691 16.5861L136.348 26.119L125.536 35.1746L116.773 25.9976L127.691 16.5861Z" fill="#94D1FF"/>
<path d="M16.2006 50.2244C15.2764 50.089 14.4406 49.7927 13.6897 49.3351C12.9388 48.8774 12.3076 48.301 11.7989 47.6096C11.2902 46.9182 10.9253 46.1525 10.7108 45.3134C10.4964 44.4742 10.4523 43.6124 10.5823 42.7249C10.7124 41.8374 11.0057 41.0216 11.4595 40.2736C11.9133 39.5256 12.4864 38.8939 13.1721 38.3775C13.8578 37.8611 14.6284 37.4867 15.4799 37.257C16.3315 37.0274 17.2244 36.981 18.1619 37.1184C19.0994 37.2557 19.9219 37.5501 20.6728 38.0077C21.4237 38.4654 22.052 39.038 22.5651 39.7232C23.0748 40.4079 23.4435 41.1708 23.6646 42.0109C23.8857 42.851 23.9322 43.72 23.8002 44.6208C23.6682 45.5216 23.3768 46.3241 22.923 47.0721C22.4692 47.8202 21.8927 48.4514 21.2004 48.9668C20.508 49.4822 19.7341 49.8561 18.8825 50.0858C18.031 50.3154 17.1381 50.3618 16.2006 50.2244ZM16.3223 49.3937C17.1431 49.5139 17.9257 49.4753 18.6709 49.2743C19.4188 49.0772 20.0938 48.7501 20.6982 48.3002C21.3026 47.8503 21.8058 47.3004 22.2044 46.6499C22.6064 45.9999 22.865 45.2813 22.9799 44.4972C23.0948 43.7132 23.0565 42.951 22.8646 42.214C22.6727 41.477 22.3513 40.8097 21.9004 40.212C21.4496 39.6142 20.8986 39.1177 20.2449 38.7186C19.5911 38.3195 18.8552 38.0617 18.0345 37.9415C17.2137 37.8212 16.431 37.8599 15.6859 38.0608C14.9375 38.2613 14.2663 38.5855 13.6686 39.0364C13.0709 39.4873 12.5744 40.0382 12.1791 40.6891C11.7838 41.3401 11.5284 42.0592 11.4136 42.8433C11.2987 43.6273 11.3341 44.3857 11.5203 45.115C11.7065 45.8444 12.0213 46.5107 12.4645 47.1141C12.9077 47.7176 13.4581 48.2174 14.1186 48.6175C14.7791 49.0176 15.5116 49.2749 16.319 49.3932L16.3223 49.3937ZM14.2252 46.5644L15.2254 39.7382L17.8411 40.1215C18.7119 40.2491 19.357 40.5447 19.7736 41.0045C20.1897 41.4676 20.3478 42.0633 20.2402 42.7973C20.1326 43.5313 19.8087 44.0905 19.2705 44.4376C18.7357 44.7852 18.0309 44.8967 17.1601 44.7691L15.3652 44.5061L15.0459 46.6847L14.2252 46.5644ZM15.4668 43.8121L17.2618 44.0751C17.859 44.1626 18.3538 44.0886 18.74 43.8487C19.1262 43.6088 19.3593 43.2272 19.4365 42.7C19.5138 42.1729 19.399 41.7471 19.0959 41.4198C18.7928 41.0925 18.3391 40.8863 17.7419 40.7988L15.9469 40.5358L15.4664 43.8154L15.4668 43.8121ZM18.6959 47.2195L17.4049 44.471L18.2623 44.5966L19.6701 47.3623L18.6959 47.2195Z" fill="#94D1FF"/>
</svg>
