<svg width="87" height="60" viewBox="0 0 87 60" fill="none" xmlns="http://www.w3.org/2000/svg">
<path d="M65.1042 40.5395L65.1702 39.144C64.4326 39.2895 58.1154 40.351 56.4001 38.3694C53.7337 35.2908 55.8768 31.1384 58.0336 28.7028C60.8736 25.496 65.6272 24.8604 68.3501 28.6278C69.084 29.6427 69.4462 30.8397 69.8923 31.9912C78.5221 31.0822 81.1159 26.4486 81.1161 26.4469L80.6275 25.9341C80.6275 25.9341 80.0731 26.5755 79.208 27.1211C76.8548 28.6054 70.6874 29.6775 68.9843 25.4709C66.3771 19.026 75.1883 10.585 81.5485 14.7658C86.659 18.1241 86.8651 36.1076 68.2453 39.7797C67.4175 40.6989 56.7325 52.5413 56.7325 52.5413L48.9255 43.0649L48.9358 42.1314L65.1006 40.5408L65.1042 40.5395Z" fill="#0618C4"/>
<path d="M36.9407 35.9688L1.28122 39.5646L5.58934 30.0898C5.58934 30.0898 28.9064 28.18 36.6197 26.7274C37.2171 26.615 38.1301 26.4664 38.1301 26.4664L39.7426 25.1783C39.7426 25.1783 39.564 24.9396 39.3935 24.5847L38.1768 25.5546C38.0055 25.7248 37.7191 25.678 37.6126 25.4604C37.524 25.2758 37.4277 25.085 37.3718 25.0031C34.5263 20.8512 28.9759 25.5187 26.0122 21.7461C22.8348 17.7048 28.5062 10.7055 31.7927 8.56705C38.2874 4.34475 42.9993 6.63237 42.9993 6.63237L39.0589 13.5994L38.9334 13.6106C34.6209 9.65899 29.236 14.2949 28.9112 14.522L29.0784 14.9037L30.082 14.2585C30.1338 14.9042 30.6924 15.5347 31.1732 15.8561C33.2123 17.2314 35.3069 16.2682 37.4984 16.6891C39.871 17.1433 42.1181 19.3525 42.5602 21.7341C43.3164 25.796 40.5051 31.8806 36.9407 35.9688Z" fill="#0618C4"/>
<path d="M51.6197 28.5133L48.8653 39.7433L37.394 50.7545L28.3912 41.1526L28.4199 40.422L46.1248 38.7629C46.1248 38.7629 45.9287 31.9646 46.0002 29.9273L51.6199 28.5116L51.6197 28.5133Z" fill="#0618C4"/>
<path d="M10.8327 42.2049L25.8348 40.7089L23.0598 49.2916L9.04969 50.7528L8.49359 50.1294L10.8327 42.2049Z" fill="#0618C4"/>
<path d="M51.0952 14.531L55.5111 19.2164L50.1901 23.8436L45.7244 19.3353L51.0952 14.531Z" fill="#0618C4"/>
<path d="M63.0717 7.24377L67.4876 11.9293L62.1667 16.5564L57.7008 12.0498L63.0717 7.24377Z" fill="#0618C4"/>
<path d="M7.64768 25.0921C7.18442 25.0329 6.76382 24.8925 6.38422 24.6707C6.00461 24.4489 5.68372 24.1666 5.423 23.8256C5.16229 23.4847 4.97277 23.1053 4.8578 22.6878C4.74283 22.2703 4.7128 21.8398 4.7696 21.395C4.82639 20.9501 4.96549 20.5395 5.18544 20.1614C5.40538 19.7832 5.68603 19.4621 6.02404 19.1976C6.36205 18.9332 6.74379 18.7388 7.16738 18.6161C7.59096 18.4935 8.0369 18.462 8.50685 18.522C8.9768 18.582 9.39071 18.7215 9.77031 18.9433C10.1499 19.1652 10.4693 19.4456 10.7322 19.7834C10.9933 20.121 11.1847 20.499 11.303 20.9169C11.4213 21.3348 11.4526 21.7688 11.395 22.2204C11.3373 22.6719 11.1991 23.0758 10.9791 23.454C10.7592 23.8321 10.4769 24.153 10.1355 24.4171C9.79415 24.6811 9.41074 24.8752 8.98715 24.9979C8.56356 25.1206 8.11763 25.1521 7.64768 25.0921ZM7.70084 24.6756C8.11226 24.7282 8.50318 24.7016 8.87382 24.5942C9.24592 24.4888 9.58033 24.319 9.87831 24.0885C10.1763 23.858 10.4227 23.5784 10.616 23.2495C10.8109 22.9209 10.9336 22.5592 10.9838 22.1662C11.0339 21.7732 11.0078 21.3925 10.905 21.0258C10.8022 20.6592 10.6354 20.3286 10.4044 20.0339C10.1735 19.7393 9.8935 19.4962 9.56296 19.3027C9.23243 19.1092 8.86218 18.9872 8.45077 18.9347C8.03935 18.8821 7.64843 18.9087 7.27779 19.0161C6.90548 19.1232 6.57295 19.2915 6.27832 19.5224C5.98368 19.7534 5.74057 20.0334 5.54899 20.3625C5.35741 20.6915 5.23642 21.0534 5.18625 21.4464C5.13607 21.8395 5.1608 22.2183 5.26064 22.5811C5.36049 22.944 5.52399 23.2742 5.75116 23.5718C5.97832 23.8693 6.25811 24.1141 6.59199 24.308C6.92587 24.5019 7.29445 24.6237 7.69917 24.6754L7.70084 24.6756ZM6.62627 23.2807L7.06311 19.8589L8.37429 20.0263C8.81079 20.082 9.13603 20.2238 9.34853 20.4498C9.56082 20.6775 9.64537 20.9738 9.59839 21.3418C9.55142 21.7097 9.39467 21.9922 9.12883 22.1707C8.86465 22.3495 8.51337 22.4117 8.07687 22.356L7.17711 22.2411L7.03768 23.3332L6.62627 23.2807ZM7.22152 21.8932L8.12128 22.0081C8.42064 22.0463 8.66731 22.0047 8.85814 21.8812C9.04898 21.7577 9.16199 21.5648 9.19573 21.3005C9.22946 21.0363 9.16812 20.8245 9.01358 20.6637C8.85904 20.5029 8.63031 20.404 8.33095 20.3658L7.43118 20.2509L7.2213 21.8949L7.22152 21.8932ZM8.86732 23.5668L8.19647 22.2047L8.62628 22.2596L9.35566 23.6291L8.86732 23.5668Z" fill="#0618C4"/>
</svg>
