<svg width="36" height="43" viewBox="0 0 36 43" fill="none" xmlns="http://www.w3.org/2000/svg">
<path d="M34.6117 17.7808C32.1843 14.9567 27.8775 10.702 21.1393 6.48644C15.5982 3.01939 10.6663 1.17837 7.50329 0.244175C5.72853 -0.279597 3.84728 0.0467837 2.35254 1.151C0.8578 2.25718 0 3.94967 0 5.79655V37.2033C0 39.0502 0.859772 40.7427 2.35254 41.8489C3.37993 42.6072 4.59071 43 5.82515 43C6.38519 43 6.94917 42.9179 7.50526 42.7557C10.6683 41.8215 15.6001 39.9805 21.1413 36.5134C27.8795 32.2959 32.1862 28.0432 34.6137 25.2172C36.4634 23.0634 36.4614 19.9345 34.6117 17.7808Z" fill="#FF0000"/>
</svg>
