<svg width="30" height="39" viewBox="0 0 30 39" fill="none" xmlns="http://www.w3.org/2000/svg">
<path d="M28.5745 16.1971C28.3157 15.8131 22.0828 6.6896 10.0053 1.41008C6.6234 -0.0777895 2.66596 1.41007 1.16687 4.71305C-0.341151 8.01166 1.16687 11.8862 4.5443 13.3566C8.77389 15.2067 12.0041 17.7373 14.168 19.7968C12.013 21.8475 8.78727 24.3651 4.5443 26.2238C1.17133 27.6986 -0.341151 31.5688 1.16687 34.8674C2.27781 37.3021 4.7183 38.742 7.27925 38.742C8.19388 38.742 9.12189 38.5587 10.0053 38.1704C22.0828 32.8909 28.3112 23.7717 28.5745 23.3877C30.0423 21.2061 30.0423 18.3787 28.5745 16.1971Z" fill="#D7F0F2"/>
</svg>
