<svg width="1080" height="350" viewBox="0 0 1080 350" fill="none" xmlns="http://www.w3.org/2000/svg">
<path d="M794 123.5C887.182 134.025 1092.71 21.3315 1133 0.5L1328.13 257.153C1360.42 261.004 1352.49 289.193 1352.49 289.193L1328.13 257.153C1305.41 254.444 1262.79 263.779 1183.5 303.446C991.5 399.5 812.659 276.585 581.5 303.446C350.341 330.308 258.636 376.362 16 330.308C-226.636 284.254 -276 330.308 -276 330.308C-248.529 136.246 -248.45 321.532 -190.289 243.693C-98.5352 120.896 139.912 101.709 350.341 101.709C443.868 101.709 677.523 110.343 794 123.5Z" fill="#C9E8FF"/>
</svg>
