<svg width="1080" height="341" viewBox="0 0 1080 341" fill="none" xmlns="http://www.w3.org/2000/svg">
<path d="M794 114.5C887.182 125.025 1026.71 21.3315 1067 0.5L1319.35 247.726C1361.77 247.192 1352.49 280.193 1352.49 280.193L1319.35 247.726C1294.98 248.032 1253.55 259.403 1183.5 294.446C991.5 390.5 812.659 267.585 581.5 294.446C350.341 321.308 258.636 367.362 16 321.308C-226.636 275.254 -276 321.308 -276 321.308C-248.529 127.246 -248.45 312.532 -190.289 234.693C-98.5352 111.896 139.912 92.7092 350.341 92.7092C443.868 92.7092 677.523 101.343 794 114.5Z" fill="#C9E8FF"/>
</svg>
