<svg width="1080" height="323" viewBox="0 0 1080 323" fill="none" xmlns="http://www.w3.org/2000/svg">
<path d="M794 96.5C887.182 107.025 1064.21 21.3315 1104.5 0.5L1321.72 229.731C1361.42 230.442 1352.49 262.193 1352.49 262.193L1321.72 229.731C1297.7 229.301 1255.88 240.236 1183.5 276.446C991.5 372.5 812.659 249.585 581.5 276.446C350.341 303.308 258.636 349.362 16 303.308C-226.636 257.254 -276 303.308 -276 303.308C-248.529 109.246 -248.45 294.532 -190.289 216.693C-98.5352 93.8962 139.912 74.7092 350.341 74.7092C443.868 74.7092 677.523 83.3432 794 96.5Z" fill="#C9E8FF"/>
</svg>
