<svg width="1080" height="273" viewBox="0 0 1080 273" fill="none" xmlns="http://www.w3.org/2000/svg">
<path d="M793.773 91.4275C886.935 99.8689 1026.43 16.7068 1066.71 0L1319.01 198.274C1361.42 197.846 1352.14 224.313 1352.14 224.313L1319.01 198.274C1294.64 198.52 1253.22 207.639 1183.19 235.744C991.231 312.778 812.428 214.201 581.318 235.744C350.208 257.287 258.523 294.222 15.938 257.287C-226.647 220.352 -276 257.287 -276 257.287C-248.535 101.65 -255.649 120.427 -197.5 58C-105.766 -40.4823 139.824 73.9514 350.208 73.9514C443.715 73.9514 677.32 80.8758 793.773 91.4275Z" fill="#C9E8FF"/>
</svg>
