<svg width="1080" height="257" viewBox="0 0 1080 257" fill="none" xmlns="http://www.w3.org/2000/svg">
<path d="M793.773 86.0691C886.935 94.0157 1026.43 15.7277 1066.71 0L1319.01 186.653C1361.42 186.25 1352.14 211.166 1352.14 211.166L1319.01 186.653C1294.64 186.885 1253.22 195.47 1183.19 221.927C991.231 294.447 812.428 201.647 581.318 221.927C350.208 242.208 258.523 276.978 15.938 242.208C-226.647 207.437 -276 242.208 -276 242.208C-248.535 95.6921 -248.456 235.582 -190.307 176.814C-98.5729 84.1033 139.824 69.6172 350.208 69.6173C443.715 69.6173 677.32 76.1359 793.773 86.0691Z" fill="#C9E8FF"/>
</svg>
