<svg width="1080" height="376" viewBox="0 0 1080 376" fill="none" xmlns="http://www.w3.org/2000/svg">
<path d="M793.773 92.5331C886.935 100.272 1067.72 15.3183 1108 0.00128174L1215.15 113.174C1395.76 64.7258 1464 376 1464 376L1215.15 113.174C1210.19 114.506 1205.14 116.11 1200 118C1008.92 188.303 814.22 204.941 584.49 224.573L581.318 224.844C350.208 244.595 172.585 201.862 -70 168C-312.585 134.138 -171 135.5 -171 135.5C-150.707 30.0747 -206.609 71.4927 -213.739 77.233C-214.676 77.9875 -214.771 78.1256 -213.739 77.233C-211.996 75.7251 -207.039 71.2755 -197.5 61.8863C-105.766 -28.4037 139.824 76.5107 350.208 76.5107C443.716 76.5107 677.32 82.8591 793.773 92.5331Z" fill="#C9E8FF"/>
</svg>
