<svg width="1080" height="240" viewBox="0 0 1080 240" fill="none" xmlns="http://www.w3.org/2000/svg">
<path d="M789.176 71.4638C881.938 79.2991 1058.17 15.5073 1098.28 0L1314.52 170.643C1354.04 171.173 1345.14 194.808 1345.14 194.808L1314.52 170.643C1290.61 170.323 1248.97 178.463 1176.92 205.419C985.785 276.922 807.751 185.422 577.634 205.419C347.517 225.415 256.226 259.698 14.6835 225.415C-226.859 191.132 -276 225.415 -276 225.415C-248.653 80.952 -248.574 218.882 -190.675 160.937C-99.3354 69.5255 138.037 55.2425 347.517 55.2425C440.623 55.2425 673.224 61.6698 789.176 71.4638Z" fill="#C9E8FF"/>
</svg>
