<svg width="1080" height="149" viewBox="0 0 1080 149" fill="none" xmlns="http://www.w3.org/2000/svg">
<path d="M789.176 44.3671C881.938 49.2315 1058.17 9.62746 1098.28 0L1314.52 105.941C1354.04 106.27 1345.14 120.944 1345.14 120.944L1314.52 105.941C1290.61 105.742 1248.97 110.796 1176.92 127.531C985.785 171.923 807.751 115.116 577.634 127.531C347.517 139.945 256.226 161.229 14.6835 139.945C-226.859 118.661 -276 139.945 -276 139.945C-248.653 50.2577 -248.574 135.889 -190.675 99.9151C-99.3354 43.1638 138.037 34.2964 347.517 34.2964C440.623 34.2964 673.224 38.2866 789.176 44.3671Z" fill="#C9E8FF"/>
</svg>
