<svg id="visual" viewBox="0 0 900 600" width="900" height="600" xmlns="http://www.w3.org/2000/svg" xmlns:xlink="http://www.w3.org/1999/xlink" version="1.1"><rect x="0" y="0" width="900" height="600" fill="#ffffff"></rect><path d="M0 513L25 509.3C50 505.7 100 498.3 150 494.2C200 490 250 489 300 491C350 493 400 498 450 500.5C500 503 550 503 600 504.2C650 505.3 700 507.7 750 501.8C800 496 850 482 875 475L900 468L900 601L875 601C850 601 800 601 750 601C700 601 650 601 600 601C550 601 500 601 450 601C400 601 350 601 300 601C250 601 200 601 150 601C100 601 50 601 25 601L0 601Z" fill="#C9E8FF" stroke-linecap="round" stroke-linejoin="miter"></path></svg>