<svg width="1080" height="401" viewBox="0 0 1080 401" fill="none" xmlns="http://www.w3.org/2000/svg">
<path d="M793.964 98.6849C887.099 106.939 1067.83 16.3359 1108.1 0.000427246L1207.04 111.478C1300.45 -61.081 1464 401 1464 401L1207.04 111.478C1204.67 115.853 1202.35 120.636 1200.08 125.845C1108.1 336.5 699 349.5 475 349.5C251 349.5 122.516 284.614 -120 248.5C-362.516 212.386 -170.535 144.509 -170.535 144.509C-150.248 32.0731 -206.134 76.2458 -213.262 82.3675C-214.199 83.1721 -214.293 83.3195 -213.262 82.3675C-211.519 80.7594 -206.564 76.0139 -197.027 66.0003C-105.319 -30.2933 140.201 81.5972 350.525 81.5972C444.006 81.5972 677.544 88.3677 793.964 98.6849Z" fill="#C9E8FF"/>
</svg>
