<svg width="1080" height="237" viewBox="0 0 1080 237" fill="none" xmlns="http://www.w3.org/2000/svg">
<path d="M793.773 92.533C886.935 100.272 1067.72 15.3183 1108 0.0012207L1307.93 175.544C1361.72 177.309 1352.14 214.364 1352.14 214.364L1307.93 175.544C1282.44 174.707 1242.71 181.794 1181 204.5C989.041 275.126 812.428 205.093 581.318 224.844C350.208 244.595 165.085 238.362 -77.4999 204.5C-320.085 170.638 -171 135.5 -171 135.5C-150.707 30.0744 -206.61 71.4928 -213.739 77.233C-214.676 77.9874 -214.771 78.1255 -213.739 77.233C-211.996 75.7251 -207.039 71.2755 -197.5 61.8862C-105.766 -28.4038 139.824 76.5107 350.208 76.5107C443.716 76.5107 677.32 82.8591 793.773 92.533Z" fill="#C9E8FF"/>
</svg>
