<svg width="64" height="76" viewBox="0 0 64 76" fill="none" xmlns="http://www.w3.org/2000/svg">
<path d="M60.7883 31.2282C56.5249 26.2683 48.961 18.7959 37.1268 11.3921C27.3949 5.30292 18.7331 2.06955 13.178 0.428843C10.061 -0.491053 6.75695 0.0821657 4.13175 2.0215C1.50655 3.96426 0 6.93676 0 10.1804V65.3399C0 68.5835 1.51001 71.556 4.13175 73.4988C5.93614 74.8306 8.06262 75.5205 10.2307 75.5205C11.2142 75.5205 12.2048 75.3763 13.1814 75.0915C18.7366 73.4507 27.3984 70.2174 37.1303 64.1282C48.9645 56.721 56.5284 49.252 60.7918 44.2887C64.0404 40.5061 64.0369 35.0108 60.7883 31.2282Z" fill="#FF0000"/>
</svg>
